<?xml version="1.0" encoding="utf-8" standalone="no"?>
<!DOCTYPE svg PUBLIC "-//W3C//DTD SVG 1.1//EN"
  "http://www.w3.org/Graphics/SVG/1.1/DTD/svg11.dtd">
<!-- Created with matplotlib (https://matplotlib.org/) -->
<svg height="432pt" version="1.1" viewBox="0 0 432 432" width="432pt" xmlns="http://www.w3.org/2000/svg" xmlns:xlink="http://www.w3.org/1999/xlink">
 <metadata>
  <rdf:RDF xmlns:cc="http://creativecommons.org/ns#" xmlns:dc="http://purl.org/dc/elements/1.1/" xmlns:rdf="http://www.w3.org/1999/02/22-rdf-syntax-ns#">
   <cc:Work>
    <dc:type rdf:resource="http://purl.org/dc/dcmitype/StillImage"/>
    <dc:date>2022-11-25T15:11:25.415303</dc:date>
    <dc:format>image/svg+xml</dc:format>
    <dc:creator>
     <cc:Agent>
      <dc:title>Matplotlib v3.3.4, https://matplotlib.org/</dc:title>
     </cc:Agent>
    </dc:creator>
   </cc:Work>
  </rdf:RDF>
 </metadata>
 <defs>
  <style type="text/css">*{stroke-linecap:butt;stroke-linejoin:round;}</style>
 </defs>
 <g id="figure_1">
  <g id="patch_1">
   <path d="M 0 432 
L 432 432 
L 432 0 
L 0 0 
z
" style="fill:#ffffff;"/>
  </g>
  <g id="axes_1">
   <g id="patch_2">
    <path d="M 72.027 375.84675 
L 416.448 375.84675 
L 416.448 15.552 
L 72.027 15.552 
z
" style="fill:#ffffff;"/>
   </g>
   <g id="matplotlib.axis_1">
    <g id="xtick_1">
     <g id="text_1">
      <!-- −10 -->
      <g style="fill:#262626;" transform="translate(103.308395 395.376688)scale(0.132 -0.132)">
       <defs>
        <path d="M 10.59375 35.296875 
L 73.1875 35.296875 
L 73.1875 27.390625 
L 10.59375 27.390625 
z
" id="DejaVuSerif-8722"/>
        <path d="M 14.203125 0 
L 14.203125 5.171875 
L 26.90625 5.171875 
L 26.90625 65.828125 
L 12.203125 56.296875 
L 12.203125 62.703125 
L 29.984375 74.21875 
L 36.71875 74.21875 
L 36.71875 5.171875 
L 49.421875 5.171875 
L 49.421875 0 
z
" id="DejaVuSerif-49"/>
        <path d="M 31.78125 3.421875 
Q 39.265625 3.421875 42.96875 11.625 
Q 46.6875 19.828125 46.6875 36.375 
Q 46.6875 52.984375 42.96875 61.1875 
Q 39.265625 69.390625 31.78125 69.390625 
Q 24.3125 69.390625 20.59375 61.1875 
Q 16.890625 52.984375 16.890625 36.375 
Q 16.890625 19.828125 20.59375 11.625 
Q 24.3125 3.421875 31.78125 3.421875 
z
M 31.78125 -1.421875 
Q 19.921875 -1.421875 13.25 8.53125 
Q 6.59375 18.5 6.59375 36.375 
Q 6.59375 54.296875 13.25 64.25 
Q 19.921875 74.21875 31.78125 74.21875 
Q 43.703125 74.21875 50.34375 64.25 
Q 56.984375 54.296875 56.984375 36.375 
Q 56.984375 18.5 50.34375 8.53125 
Q 43.703125 -1.421875 31.78125 -1.421875 
z
" id="DejaVuSerif-48"/>
       </defs>
       <use xlink:href="#DejaVuSerif-8722"/>
       <use x="83.789062" xlink:href="#DejaVuSerif-49"/>
       <use x="147.412109" xlink:href="#DejaVuSerif-48"/>
      </g>
     </g>
    </g>
    <g id="xtick_2">
     <g id="text_2">
      <!-- −5 -->
      <g style="fill:#262626;" transform="translate(169.911495 395.376688)scale(0.132 -0.132)">
       <defs>
        <path d="M 50.296875 72.90625 
L 50.296875 64.890625 
L 16.890625 64.890625 
L 16.890625 44 
Q 19.4375 45.75 22.828125 46.625 
Q 26.21875 47.515625 30.421875 47.515625 
Q 42.234375 47.515625 49.0625 40.96875 
Q 55.90625 34.421875 55.90625 23.09375 
Q 55.90625 11.53125 49 5.046875 
Q 42.09375 -1.421875 29.59375 -1.421875 
Q 24.5625 -1.421875 19.28125 -0.1875 
Q 14.015625 1.03125 8.5 3.515625 
L 8.5 17.671875 
L 14.015625 17.671875 
Q 14.453125 10.75 18.421875 7.078125 
Q 22.40625 3.421875 29.59375 3.421875 
Q 37.3125 3.421875 41.453125 8.5 
Q 45.609375 13.578125 45.609375 23.09375 
Q 45.609375 32.5625 41.484375 37.609375 
Q 37.359375 42.671875 29.59375 42.671875 
Q 25.203125 42.671875 21.84375 41.109375 
Q 18.5 39.546875 15.921875 36.28125 
L 11.71875 36.28125 
L 11.71875 72.90625 
z
" id="DejaVuSerif-53"/>
       </defs>
       <use xlink:href="#DejaVuSerif-8722"/>
       <use x="83.789062" xlink:href="#DejaVuSerif-53"/>
      </g>
     </g>
    </g>
    <g id="xtick_3">
     <g id="text_3">
      <!-- 0 -->
      <g style="fill:#262626;" transform="translate(237.845938 395.376688)scale(0.132 -0.132)">
       <use xlink:href="#DejaVuSerif-48"/>
      </g>
     </g>
    </g>
    <g id="xtick_4">
     <g id="text_4">
      <!-- 5 -->
      <g style="fill:#262626;" transform="translate(300.249788 395.376688)scale(0.132 -0.132)">
       <use xlink:href="#DejaVuSerif-53"/>
      </g>
     </g>
    </g>
    <g id="xtick_5">
     <g id="text_5">
      <!-- 10 -->
      <g style="fill:#262626;" transform="translate(358.454389 395.376688)scale(0.132 -0.132)">
       <use xlink:href="#DejaVuSerif-49"/>
       <use x="63.623047" xlink:href="#DejaVuSerif-48"/>
      </g>
     </g>
    </g>
    <g id="text_6">
     <!-- $x$ (m) -->
     <g style="fill:#262626;" transform="translate(225.2295 413.063625)scale(0.144 -0.144)">
      <defs>
       <path d="M 60.015625 54.6875 
L 34.90625 27.875 
L 50.296875 0 
L 39.984375 0 
L 28.421875 21.6875 
L 8.296875 0 
L -2.59375 0 
L 24.3125 28.8125 
L 10.015625 54.6875 
L 20.3125 54.6875 
L 30.8125 34.90625 
L 49.125 54.6875 
z
" id="DejaVuSans-Oblique-120"/>
       <path id="DejaVuSerif-32"/>
       <path d="M 31.890625 -15.578125 
Q 20.015625 -10.25 13.953125 1.296875 
Q 7.90625 12.84375 7.90625 30.171875 
Q 7.90625 47.5625 13.953125 59.109375 
Q 20.015625 70.65625 31.890625 75.984375 
L 31.890625 71.1875 
Q 24.359375 66.015625 21.09375 56.609375 
Q 17.828125 47.21875 17.828125 30.171875 
Q 17.828125 13.1875 21.09375 3.78125 
Q 24.359375 -5.609375 31.890625 -10.796875 
z
" id="DejaVuSerif-40"/>
       <path d="M 51.8125 41.796875 
Q 54.390625 47.515625 58.421875 50.421875 
Q 62.453125 53.328125 67.828125 53.328125 
Q 75.984375 53.328125 79.984375 48.265625 
Q 83.984375 43.21875 83.984375 33.015625 
L 83.984375 5.171875 
L 92.09375 5.171875 
L 92.09375 0 
L 67.1875 0 
L 67.1875 5.171875 
L 75 5.171875 
L 75 31.984375 
Q 75 39.9375 72.65625 43.3125 
Q 70.3125 46.6875 64.890625 46.6875 
Q 58.890625 46.6875 55.734375 42.140625 
Q 52.59375 37.59375 52.59375 28.90625 
L 52.59375 5.171875 
L 60.40625 5.171875 
L 60.40625 0 
L 35.796875 0 
L 35.796875 5.171875 
L 43.609375 5.171875 
L 43.609375 32.328125 
Q 43.609375 40.09375 41.265625 43.390625 
Q 38.921875 46.6875 33.5 46.6875 
Q 27.484375 46.6875 24.328125 42.140625 
Q 21.1875 37.59375 21.1875 28.90625 
L 21.1875 5.171875 
L 29 5.171875 
L 29 0 
L 4.109375 0 
L 4.109375 5.171875 
L 12.203125 5.171875 
L 12.203125 46.78125 
L 3.609375 46.78125 
L 3.609375 51.90625 
L 21.1875 51.90625 
L 21.1875 42.671875 
Q 23.6875 47.859375 27.53125 50.59375 
Q 31.390625 53.328125 36.28125 53.328125 
Q 42.328125 53.328125 46.375 50.3125 
Q 50.4375 47.3125 51.8125 41.796875 
z
" id="DejaVuSerif-109"/>
       <path d="M 7.078125 -15.578125 
L 7.078125 -10.796875 
Q 14.59375 -5.609375 17.890625 3.78125 
Q 21.1875 13.1875 21.1875 30.171875 
Q 21.1875 47.21875 17.890625 56.609375 
Q 14.59375 66.015625 7.078125 71.1875 
L 7.078125 75.984375 
Q 19 70.65625 25.046875 59.109375 
Q 31.109375 47.5625 31.109375 30.171875 
Q 31.109375 12.84375 25.046875 1.296875 
Q 19 -10.25 7.078125 -15.578125 
z
" id="DejaVuSerif-41"/>
      </defs>
      <use transform="translate(0 0.015625)" xlink:href="#DejaVuSans-Oblique-120"/>
      <use transform="translate(59.179688 0.015625)" xlink:href="#DejaVuSerif-32"/>
      <use transform="translate(90.966797 0.015625)" xlink:href="#DejaVuSerif-40"/>
      <use transform="translate(129.980469 0.015625)" xlink:href="#DejaVuSerif-109"/>
      <use transform="translate(224.804688 0.015625)" xlink:href="#DejaVuSerif-41"/>
     </g>
    </g>
   </g>
   <g id="matplotlib.axis_2">
    <g id="ytick_1">
     <g id="text_7">
      <!-- −10 -->
      <g style="fill:#262626;" transform="translate(34.668813 338.168604)scale(0.132 -0.132)">
       <use xlink:href="#DejaVuSerif-8722"/>
       <use x="83.789062" xlink:href="#DejaVuSerif-49"/>
       <use x="147.412109" xlink:href="#DejaVuSerif-48"/>
      </g>
     </g>
    </g>
    <g id="ytick_2">
     <g id="text_8">
      <!-- −5 -->
      <g style="fill:#262626;" transform="translate(43.067312 275.764754)scale(0.132 -0.132)">
       <use xlink:href="#DejaVuSerif-8722"/>
       <use x="83.789062" xlink:href="#DejaVuSerif-53"/>
      </g>
     </g>
    </g>
    <g id="ytick_3">
     <g id="text_9">
      <!-- 0 -->
      <g style="fill:#262626;" transform="translate(54.1285 213.360904)scale(0.132 -0.132)">
       <use xlink:href="#DejaVuSerif-48"/>
      </g>
     </g>
    </g>
    <g id="ytick_4">
     <g id="text_10">
      <!-- 5 -->
      <g style="fill:#262626;" transform="translate(54.1285 150.957054)scale(0.132 -0.132)">
       <use xlink:href="#DejaVuSerif-53"/>
      </g>
     </g>
    </g>
    <g id="ytick_5">
     <g id="text_11">
      <!-- 10 -->
      <g style="fill:#262626;" transform="translate(45.73 88.553204)scale(0.132 -0.132)">
       <use xlink:href="#DejaVuSerif-49"/>
       <use x="63.623047" xlink:href="#DejaVuSerif-48"/>
      </g>
     </g>
    </g>
    <g id="ytick_6">
     <g id="text_12">
      <!-- 15 -->
      <g style="fill:#262626;" transform="translate(45.73 26.149354)scale(0.132 -0.132)">
       <use xlink:href="#DejaVuSerif-49"/>
       <use x="63.623047" xlink:href="#DejaVuSerif-53"/>
      </g>
     </g>
    </g>
    <g id="text_13">
     <!-- $y$ (m) -->
     <g style="fill:#262626;" transform="translate(27.644813 214.707375)rotate(-90)scale(0.144 -0.144)">
      <defs>
       <path d="M 24.8125 -5.078125 
Q 18.5625 -15.578125 14.625 -18.1875 
Q 10.6875 -20.796875 4.59375 -20.796875 
L -2.484375 -20.796875 
L -0.984375 -13.28125 
L 4.203125 -13.28125 
Q 7.953125 -13.28125 10.59375 -11.234375 
Q 13.234375 -9.1875 16.5 -3.21875 
L 19.28125 2 
L 7.171875 54.6875 
L 16.703125 54.6875 
L 25.78125 12.796875 
L 50.875 54.6875 
L 60.296875 54.6875 
z
" id="DejaVuSans-Oblique-121"/>
      </defs>
      <use transform="translate(0 0.015625)" xlink:href="#DejaVuSans-Oblique-121"/>
      <use transform="translate(59.179688 0.015625)" xlink:href="#DejaVuSerif-32"/>
      <use transform="translate(90.966797 0.015625)" xlink:href="#DejaVuSerif-40"/>
      <use transform="translate(129.980469 0.015625)" xlink:href="#DejaVuSerif-109"/>
      <use transform="translate(224.804688 0.015625)" xlink:href="#DejaVuSerif-41"/>
     </g>
    </g>
   </g>
   <g id="line2d_1">
    <path clip-path="url(#peb854b9d45)" d="M 169.420992 160.862336 
L 169.230972 160.770015 
L 169.563355 160.911381 
L 169.388562 160.964879 
L 168.453225 161.643047 
L 167.976877 162.322537 
L 167.934393 162.292383 
L 167.46889 162.099419 
L 167.458544 162.229316 
L 167.5588 162.4773 
L 167.513708 162.959963 
L 166.938677 164.080737 
L 167.067221 164.814872 
L 167.477864 165.860431 
L 168.621361 168.387695 
L 168.921408 169.709713 
L 169.36581 172.759962 
L 169.132492 173.246249 
L 168.408351 174.019481 
L 167.687795 174.57337 
L 165.213699 176.475383 
L 164.032354 177.708606 
L 162.323905 179.911409 
L 159.288992 184.332863 
L 158.230411 185.796896 
L 157.366566 186.673424 
L 156.838645 187.367617 
L 156.408456 188.371417 
L 155.68207 190.426865 
L 155.175463 191.494154 
L 154.001954 193.222211 
L 153.129481 194.173311 
L 150.86292 196.329396 
L 148.452142 198.762842 
L 143.73339 204.02396 
L 140.520416 208.846132 
L 140.215536 209.599988 
L 140.041619 210.257135 
L 139.012599 215.099484 
L 138.224438 216.956168 
L 137.308793 218.715903 
L 136.711638 219.844175 
L 135.285884 223.474998 
L 134.836428 225.08929 
L 134.485606 226.992963 
L 134.271193 228.761403 
L 134.17746 229.807355 
L 133.478392 234.183665 
L 132.39827 237.478455 
L 131.528008 239.987265 
L 130.692991 243.115848 
L 129.739315 246.080723 
L 127.133293 252.815942 
L 126.46594 254.827607 
L 126.308245 255.946617 
L 126.336711 257.132547 
L 126.754913 260.337722 
L 126.934253 262.67689 
L 126.818308 264.062705 
L 126.313253 266.432648 
L 125.698698 268.99804 
L 125.909342 269.547771 
L 126.327917 269.799518 
L 127.006609 269.90793 
L 128.016103 269.833669 
L 129.358406 269.598476 
L 130.402322 269.559831 
L 133.265945 269.918133 
L 135.201298 270.446113 
L 136.102652 270.920877 
L 138.291472 272.205926 
L 139.562945 272.585444 
L 142.816343 272.985005 
L 143.983175 273.038683 
L 146.863178 273.248927 
L 147.046178 273.4113 
L 148.961817 273.545327 
L 153.931775 274.270832 
L 155.348306 274.217632 
L 157.487301 273.859715 
L 160.623089 273.132149 
L 164.635623 272.16969 
L 169.169439 271.215886 
L 170.683561 270.653132 
L 172.559213 269.660192 
L 177.545615 266.882964 
L 179.013801 266.401914 
L 181.207915 265.964667 
L 183.431487 265.55145 
L 184.756564 265.019141 
L 186.666923 264.181597 
L 187.438576 264.149237 
L 188.120862 264.172908 
L 188.823827 264.554445 
L 189.546395 265.335416 
L 191.391408 267.345629 
L 193.546225 268.950844 
L 198.265053 272.127793 
L 200.223975 273.826971 
L 207.321728 280.341724 
L 210.610572 282.800996 
L 212.893136 284.82664 
L 215.243812 287.25374 
L 220.264509 292.473564 
L 221.533947 293.478384 
L 223.344879 294.572709 
L 227.468747 296.624313 
L 230.024471 297.638794 
L 233.209879 298.644996 
L 235.629633 299.165666 
L 237.291884 299.267226 
L 239.550681 299.181387 
L 253.005223 298.316912 
L 254.851429 297.939254 
L 257.793898 297.077597 
L 265.259151 294.852395 
L 268.235622 294.056379 
L 270.563552 293.241255 
L 272.306367 292.333248 
L 276.576415 289.765119 
L 279.07002 288.420135 
L 283.824666 285.963478 
L 286.222674 284.484898 
L 290.581961 281.748113 
L 292.139477 281.005982 
L 293.809014 280.481568 
L 297.384043 279.223739 
L 297.643164 279.089798 
L 298.16098 279.166449 
L 299.135429 279.530635 
L 300.437237 280.32366 
L 302.062492 281.351621 
L 303.312956 281.827644 
L 310.774644 284.20477 
L 312.881417 285.118181 
L 316.934902 287.199287 
L 318.888686 288.098475 
L 322.99817 289.746747 
L 325.106815 290.929834 
L 327.522987 292.486229 
L 330.581325 294.727475 
L 335.517194 298.347263 
L 338.253039 299.86932 
L 347.360482 304.41909 
L 349.697214 305.319035 
L 353.90845 306.806775 
L 356.565186 307.61536 
L 358.119416 308.225048 
L 359.252861 308.571771 
L 359.773703 308.713581 
L 359.753194 308.576046 
L 359.83085 307.892905 
L 360.345661 306.073095 
L 360.463422 304.536622 
L 360.356787 303.182426 
L 359.80074 300.433415 
L 359.310573 298.264947 
L 358.834386 296.649825 
L 358.118967 295.027616 
L 357.20682 292.707735 
L 356.166611 289.280842 
L 352.764188 282.984967 
L 350.861389 279.928079 
L 348.466879 276.481328 
L 346.363034 273.989862 
L 340.850352 267.431761 
L 337.394008 262.84594 
L 334.606729 259.71958 
L 330.709684 255.734757 
L 327.805099 252.626347 
L 322.874952 247.096816 
L 321.890664 246.342492 
L 316.680848 243.244982 
L 314.889112 241.778485 
L 313.521768 240.362697 
L 311.41939 237.586048 
L 306.087783 229.272204 
L 304.820947 227.027541 
L 303.79005 224.428792 
L 302.915714 222.382568 
L 302.424801 221.33262 
L 301.962178 220.046669 
L 301.464643 219.369421 
L 301.282053 219.102632 
L 301.145966 218.988866 
L 300.700249 218.95981 
L 300.021424 218.877262 
L 297.956088 218.737711 
L 295.628721 218.718137 
L 292.212351 218.395962 
L 291.366769 217.968957 
L 290.563184 217.292127 
L 289.399148 215.904344 
L 287.716854 213.980839 
L 285.746554 212.361922 
L 283.54823 210.575973 
L 281.153738 208.311258 
L 279.578439 206.501224 
L 274.407477 200.207636 
L 266.923826 192.586113 
L 265.070899 190.326358 
L 261.000249 184.733148 
L 258.596789 181.574091 
L 255.247621 177.271929 
L 253.168865 174.177663 
L 250.199085 169.569185 
L 243.908754 160.899151 
L 240.123905 155.124064 
L 238.217009 153.080433 
L 232.741684 147.532824 
L 227.574858 141.037404 
L 223.93804 137.111894 
L 220.579015 133.002125 
L 217.414791 128.97654 
L 216.083522 127.677326 
L 212.978227 125.053469 
L 211.505597 123.837211 
L 209.981867 122.584006 
L 209.556515 122.126422 
L 209.587036 122.111512 
L 209.819571 121.966097 
L 209.88037 121.633357 
L 209.717049 121.349618 
L 209.526405 120.726562 
L 209.508754 119.928878 
L 209.632352 118.921571 
L 210.090309 117.265485 
L 212.787494 109.375868 
L 213.599466 107.28231 
L 214.566749 105.355525 
L 215.817532 103.392406 
L 217.020001 101.901891 
L 218.977183 99.884789 
L 221.610162 97.225044 
L 224.597161 94.278028 
L 227.197455 92.094696 
L 230.37565 89.835182 
L 233.717685 87.726802 
L 243.623523 82.260976 
L 247.08535 80.934022 
L 253.766372 78.430535 
L 261.354164 75.444869 
L 264.718966 74.469896 
L 268.027237 73.806047 
L 272.0571 73.007018 
L 273.528156 72.484168 
L 278.325228 70.566207 
L 290.040606 66.398554 
L 291.336292 65.648131 
L 299.580473 60.302472 
L 303.751926 57.734835 
L 305.164332 56.620617 
L 308.09245 53.935049 
L 309.371543 52.74074 
L 310.136126 52.297593 
L 310.740035 52.194735 
L 311.159321 52.360475 
L 312.743781 53.388568 
L 313.474025 53.515296 
L 313.896664 53.579563 
L 314.890549 53.841922 
L 315.606676 54.258714 
L 316.386008 54.974441 
L 317.512929 56.29772 
L 318.973689 58.028137 
L 321.060645 59.870732 
L 325.350324 63.677039 
L 326.617282 65.191336 
L 331.086628 70.9218 
L 333.340194 73.1916 
L 337.532032 77.378219 
L 339.625832 80.077469 
L 344.454306 85.803553 
L 346.24885 87.768203 
L 347.738622 89.850194 
L 348.913165 91.772277 
L 349.661649 93.394224 
L 351.176467 97.221528 
L 352.090719 99.407855 
L 355.018669 105.340314 
L 356.05901 108.441044 
L 356.53984 110.62552 
L 357.113305 114.511602 
L 357.485296 116.470574 
L 358.038423 118.407845 
L 358.875832 120.469541 
L 359.611871 121.81172 
L 360.589523 123.653934 
L 361.043092 124.797756 
L 361.269905 126.026075 
L 361.21617 126.463165 
L 360.883286 127.00658 
L 360.436107 127.350338 
L 359.61832 128.176224 
L 357.645254 129.745756 
L 353.810179 132.433155 
L 348.336894 137.224277 
L 346.339249 138.632954 
L 342.178332 141.599237 
L 341.04757 142.627698 
L 339.735496 144.194889 
L 337.249109 147.262552 
L 335.614104 148.78386 
L 333.41291 150.479454 
L 329.477453 153.510854 
L 328.354766 154.780232 
L 326.145719 157.344151 
L 324.284829 159.168141 
L 322.49514 160.675861 
L 320.074341 162.350252 
L 317.127819 164.373146 
L 315.056232 166.381613 
L 312.92472 168.358155 
L 309.620423 171.054879 
L 307.338925 172.405029 
L 303.870867 174.367788 
L 302.444581 175.521887 
L 299.681764 177.984555 
L 298.527035 178.417457 
L 297.7756 178.550338 
L 297.478841 178.569566 
L 297.242954 178.530869 
L 296.83803 178.423725 
L 292.611583 176.517852 
L 291.612446 175.90003 
L 291.612446 175.90003 
" style="fill:none;stroke:#000000;stroke-dasharray:3.7,1.6;stroke-dashoffset:0;stroke-opacity:0.5;"/>
   </g>
   <g id="line2d_2">
    <path clip-path="url(#peb854b9d45)" d="M 170.46581 161.682537 
L 170.643171 161.370449 
L 170.660671 161.3904 
L 170.889172 161.462156 
L 170.982999 161.394004 
L 170.969014 161.4436 
L 170.94567 161.429128 
L 171.148213 161.491852 
L 171.314412 161.548936 
L 171.2003 161.562752 
L 170.672393 161.742653 
L 169.822356 162.270715 
L 169.777339 162.481196 
L 169.841826 162.580688 
L 170.081588 162.706169 
L 170.19566 162.778677 
L 170.014775 162.653703 
L 169.512654 162.536136 
L 169.340899 162.58226 
L 169.396778 162.676622 
L 169.43124 162.767118 
L 169.033199 162.890238 
L 169.098173 163.147965 
L 169.303064 163.438112 
L 169.296868 163.749177 
L 169.058752 164.048057 
L 169.032364 164.535628 
L 169.238498 165.142387 
L 169.404458 166.313715 
L 169.840402 167.607297 
L 170.078396 169.156853 
L 170.183932 171.774476 
L 170.246585 172.366241 
L 169.390898 173.43415 
L 169.087934 174.147411 
L 168.590841 174.701391 
L 167.189614 175.778507 
L 166.259376 176.781298 
L 164.344563 179.390963 
L 163.667449 180.654437 
L 161.51545 182.79512 
L 159.347432 185.295987 
L 157.694069 186.414896 
L 157.214456 187.106085 
L 157.050341 188.806817 
L 156.691583 190.070209 
L 155.680757 191.876801 
L 155.17837 192.572549 
L 151.466094 196.338803 
L 149.708775 197.802827 
L 145.827709 202.391015 
L 142.831977 206.586363 
L 141.775172 208.737807 
L 141.469954 211.262631 
L 141.209481 212.324567 
L 140.785841 213.514419 
L 137.924742 219.307863 
L 136.603914 222.129663 
L 136.013159 223.696664 
L 135.771361 224.942 
L 135.68612 227.22055 
L 135.527104 228.664158 
L 134.621956 233.129509 
L 133.850088 235.485965 
L 132.344457 240.599948 
L 132.127158 241.685537 
L 131.008999 244.808686 
L 130.172728 246.627249 
L 129.074175 249.445294 
L 126.975393 254.040225 
L 126.909625 255.117773 
L 127.082289 256.09243 
L 127.755742 257.858113 
L 127.805141 260.35047 
L 128.011824 262.188302 
L 127.910147 262.764884 
L 128.001957 263.497404 
L 128.308857 264.11882 
L 128.214467 264.722013 
L 127.34152 265.504991 
L 127.228464 265.849165 
L 127.404178 266.275274 
L 127.101317 266.558623 
L 127.084483 266.739259 
L 126.946343 267.001051 
L 127.257185 267.494312 
L 127.440761 267.713803 
L 128.617931 268.001099 
L 133.14633 268.135215 
L 136.434808 268.857086 
L 137.068328 269.221498 
L 137.699971 269.733396 
L 138.84464 270.375048 
L 144.462274 272.314972 
L 146.66154 272.35543 
L 156.691737 273.603333 
L 159.151829 273.204949 
L 160.016548 272.792442 
L 161.068377 272.419104 
L 162.634527 272.08849 
L 166.17876 271.594814 
L 170.325255 270.664845 
L 171.871633 270.175657 
L 172.898616 269.632117 
L 174.935107 268.260305 
L 175.946997 267.366504 
L 177.384437 266.663553 
L 180.188324 265.856022 
L 181.435656 265.60247 
L 183.2651 265.531683 
L 184.407919 265.262759 
L 186.377696 264.177535 
L 187.704998 263.831569 
L 187.682192 263.838339 
L 188.634993 263.748634 
L 188.518013 264.116366 
L 188.696087 264.463064 
L 191.094671 266.019719 
L 192.096997 266.843487 
L 193.042816 268.075625 
L 193.595108 268.797423 
L 194.412621 269.656352 
L 198.128123 271.784014 
L 200.006863 273.095935 
L 202.920244 275.749447 
L 205.474732 278.64229 
L 208.286918 280.682361 
L 209.672834 281.657968 
L 211.076061 282.807402 
L 215.345214 287.302434 
L 216.827718 288.683347 
L 219.516225 291.535822 
L 222.194558 293.467795 
L 224.088375 294.673294 
L 229.022595 296.965094 
L 231.664105 297.756768 
L 233.274898 298.303373 
L 235.348057 298.828643 
L 237.064491 298.884983 
L 241.351559 298.361481 
L 243.008268 298.124887 
L 251.872225 297.597619 
L 253.842583 297.066013 
L 256.855916 296.084249 
L 258.465045 295.666814 
L 260.141518 295.574076 
L 262.019267 294.748527 
L 263.71901 294.227741 
L 265.30978 293.884472 
L 270.005525 292.347035 
L 271.173765 291.833866 
L 273.313637 290.32661 
L 274.547103 289.785124 
L 277.820035 287.96995 
L 281.579399 285.847912 
L 285.642536 283.195796 
L 288.063873 281.705825 
L 289.365432 280.866044 
L 290.711661 280.185457 
L 293.201114 279.352595 
L 294.057679 278.957697 
L 294.711077 278.786329 
L 295.808945 278.464471 
L 296.053892 278.890125 
L 297.600255 279.449162 
L 300.583176 280.625332 
L 301.517333 281.134842 
L 302.533364 281.486312 
L 303.999724 281.867598 
L 309.445932 283.724885 
L 314.588367 286.08902 
L 317.547877 287.153669 
L 320.707099 288.572089 
L 323.589932 290.435394 
L 326.88552 292.533191 
L 331.595062 295.930274 
L 334.539775 297.618126 
L 338.967173 299.603877 
L 343.601225 301.749287 
L 346.291074 302.668785 
L 350.315953 303.993818 
L 352.055548 304.318855 
L 353.732121 304.812475 
L 355.210639 305.423162 
L 356.227086 305.448615 
L 356.541359 305.48136 
L 356.720511 305.451364 
L 356.948876 305.167214 
L 357.269137 303.982826 
L 357.724251 303.097491 
L 358.057942 301.96845 
L 358.07914 300.498151 
L 357.133663 294.914424 
L 355.162587 289.379443 
L 354.823507 286.397087 
L 354.43419 285.004528 
L 352.966647 283.601854 
L 351.536649 280.915714 
L 350.839279 279.31412 
L 349.170647 276.733972 
L 348.224509 275.577401 
L 347.298324 274.086088 
L 346.101502 272.436213 
L 342.224373 268.986171 
L 341.1511 267.387815 
L 338.107094 263.752867 
L 335.320272 260.214102 
L 333.78439 258.449982 
L 332.091553 256.829463 
L 330.25557 254.303567 
L 327.189328 251.41292 
L 326.319638 249.983658 
L 325.333799 248.585956 
L 320.61132 244.202317 
L 317.899679 242.468573 
L 317.268311 241.809824 
L 314.919498 240.057007 
L 313.922433 238.993798 
L 311.969399 236.514352 
L 308.505555 233.205679 
L 307.41218 231.726417 
L 307.402871 231.1867 
L 307.135505 230.353839 
L 300.593035 219.845027 
L 301.210114 219.352042 
L 301.363314 219.081011 
L 301.134832 218.706228 
L 300.549076 218.317809 
L 300.74308 218.263985 
L 300.853372 218.029667 
L 300.51429 217.661271 
L 300.170143 217.508528 
L 299.952316 217.577003 
L 299.512099 217.493043 
L 299.364739 217.594634 
L 297.312045 217.163379 
L 295.942835 217.01259 
L 295.178773 217.18154 
L 292.795087 217.212403 
L 292.261082 217.146035 
L 290.870617 216.629119 
L 289.438838 215.665558 
L 288.098489 214.472294 
L 287.554197 213.50761 
L 287.148581 212.423237 
L 284.646396 210.443459 
L 281.794181 207.952433 
L 275.967461 202.064226 
L 274.661603 200.870489 
L 273.535839 199.622064 
L 272.455413 198.687545 
L 264.395641 189.716948 
L 262.195531 186.764046 
L 261.184674 185.341128 
L 259.083197 182.698632 
L 256.524677 179.447643 
L 254.223283 176.317163 
L 251.221692 171.463243 
L 249.154368 169.045002 
L 248.3942 167.748836 
L 247.346322 166.20531 
L 246.107139 164.797067 
L 241.719979 158.167842 
L 239.151153 155.087095 
L 235.840202 151.61797 
L 232.998756 148.366668 
L 230.747573 145.501266 
L 227.721624 141.746576 
L 225.761789 139.492772 
L 222.240998 135.27077 
L 220.467694 132.885228 
L 219.418351 131.741874 
L 218.538076 130.601289 
L 214.099314 126.970274 
L 213.529799 126.298287 
L 212.733983 125.614186 
L 212.078043 125.241568 
L 211.721389 124.632351 
L 211.719047 124.504736 
L 212.003183 124.597127 
L 212.117307 124.244245 
L 211.768282 123.744893 
L 211.770193 123.276406 
L 212.471734 122.129032 
L 212.45863 119.690257 
L 212.728266 118.457638 
L 213.352475 117.293893 
L 214.302602 116.115227 
L 215.08106 114.618593 
L 215.581023 111.995635 
L 216.923212 108.96164 
L 217.695627 107.341874 
L 218.725562 105.815489 
L 219.867593 104.434529 
L 221.047049 103.259784 
L 223.062088 100.619604 
L 224.27507 99.567438 
L 227.062308 97.455843 
L 228.324675 96.280918 
L 229.56814 94.709533 
L 232.548283 92.562619 
L 234.119891 91.841906 
L 240.220636 88.21807 
L 241.81865 87.252251 
L 247.178226 84.65894 
L 249.07341 84.015634 
L 257.71868 80.586481 
L 259.541928 79.90076 
L 261.361776 79.344767 
L 263.344005 78.605972 
L 265.577011 78.023195 
L 271.943028 76.764763 
L 273.518616 76.625337 
L 278.087845 74.322134 
L 279.800028 73.708309 
L 281.619487 73.206077 
L 283.584411 72.336345 
L 288.926266 70.40546 
L 290.433867 69.776858 
L 291.752973 69.009601 
L 293.037726 68.069338 
L 294.326224 66.910473 
L 295.529347 65.991351 
L 296.98731 65.076177 
L 298.58157 64.330452 
L 302.565242 61.842554 
L 303.748952 61.144572 
L 305.665473 59.508737 
L 307.153453 57.566194 
L 308.590487 56.128516 
L 309.377135 56.01245 
L 309.985703 55.794068 
L 310.500016 56.174365 
L 311.202966 56.42946 
L 311.378438 56.765665 
L 311.530481 57.066268 
L 311.634332 57.049151 
L 311.893429 56.866838 
L 312.304494 56.85718 
L 312.488305 56.965819 
L 312.681274 56.818762 
L 312.800702 56.89854 
L 312.897753 56.803697 
L 313.449075 57.342163 
L 314.275842 57.79943 
L 318.005881 61.631753 
L 318.960216 62.914166 
L 320.111358 63.659674 
L 322.595128 65.630274 
L 323.889773 66.90062 
L 325.000044 68.196121 
L 327.476259 71.364717 
L 328.576165 72.703357 
L 329.668367 74.215674 
L 330.828491 75.392507 
L 332.008121 76.323756 
L 333.212704 77.472942 
L 334.432556 78.474228 
L 335.600732 79.807493 
L 336.853569 80.867435 
L 338.912004 83.323428 
L 341.817328 87.508407 
L 342.866572 88.50025 
L 345.155517 91.12784 
L 347.139401 94.085408 
L 349.366564 98.75623 
L 350.563 101.95512 
L 351.078733 103.230113 
L 352.449602 105.851215 
L 355.472823 115.738868 
L 355.67813 117.176361 
L 355.767296 118.617945 
L 355.98074 119.808754 
L 356.621418 121.466036 
L 356.976848 122.054509 
L 357.364969 122.946331 
L 358.736538 124.696985 
L 359.164849 124.935547 
L 359.203146 125.230534 
L 358.761489 126.361757 
L 359.105095 126.680351 
L 358.828422 126.589417 
L 358.520782 126.666365 
L 356.996961 127.60211 
L 353.902283 130.11561 
L 352.99915 130.722959 
L 351.810316 131.141019 
L 349.628128 132.672741 
L 346.01461 136.124615 
L 340.22595 141.019903 
L 336.826186 144.753935 
L 334.348139 147.251525 
L 333.163454 148.111498 
L 330.959656 150.139073 
L 329.716468 150.88135 
L 328.455116 151.947661 
L 327.394216 153.070477 
L 325.155037 155.88212 
L 323.811493 157.026951 
L 322.312218 157.924237 
L 319.97339 160.077209 
L 318.823305 160.767139 
L 315.559122 163.245964 
L 312.16978 166.793733 
L 310.820512 167.736606 
L 309.495911 168.968385 
L 308.622224 169.3448 
L 306.375549 170.813976 
L 304.098119 172.310673 
L 302.044161 173.947167 
L 301.067017 175.2441 
L 300.15219 175.943593 
L 299.699639 176.565078 
L 299.316588 176.795012 
L 298.574564 176.872253 
L 297.980765 177.158454 
L 297.719389 177.585713 
L 297.521061 177.46807 
L 297.213754 177.64534 
L 297.089742 177.701306 
L 296.979008 177.340971 
L 296.905313 177.51253 
L 296.814289 177.339013 
L 296.591668 177.639827 
L 296.282751 177.754864 
L 295.946393 177.4211 
L 295.473795 177.118631 
L 292.983519 176.31353 
L 292.118178 175.764025 
L 291.179057 175.699344 
L 291.179057 175.699344 
" style="fill:none;stroke:#4c72b0;stroke-linecap:round;stroke-opacity:0.75;"/>
   </g>
   <g id="line2d_3">
    <path clip-path="url(#peb854b9d45)" d="M 165.334438 154.278599 
L 165.193731 154.124971 
L 165.212721 154.157764 
L 165.124484 154.061787 
L 165.203549 154.063535 
L 165.264243 153.945083 
L 165.24512 154.073914 
L 165.288542 153.979467 
L 165.434183 154.004813 
L 165.498656 153.947257 
L 165.474306 154.058013 
L 165.517869 154.061173 
L 165.512409 154.091403 
L 165.47587 154.031068 
L 165.423869 154.057235 
L 165.371862 154.083385 
L 165.657663 154.007858 
L 165.555671 154.112551 
L 165.454586 154.067141 
L 165.842035 153.988585 
L 165.815326 153.893662 
L 165.209686 154.625221 
L 164.834688 155.122445 
L 164.259362 155.725972 
L 164.40968 155.742003 
L 165.071646 155.604041 
L 165.426483 155.364229 
L 165.285261 155.314696 
L 164.220827 155.969293 
L 164.419817 156.124814 
L 164.145471 156.494816 
L 164.661219 156.797864 
L 164.855846 157.004278 
L 164.726416 157.414502 
L 164.992282 157.90302 
L 165.438045 158.255006 
L 165.811655 158.755126 
L 166.028023 159.30595 
L 167.426699 161.133428 
L 167.928068 161.880736 
L 168.324579 162.77787 
L 168.545611 163.712926 
L 169.266722 164.80308 
L 168.99462 165.541498 
L 168.998208 166.870791 
L 168.464105 168.201212 
L 167.59762 169.510906 
L 166.692057 172.047328 
L 166.522832 173.213596 
L 166.55149 174.337493 
L 166.132774 175.957363 
L 165.99588 177.433404 
L 166.024044 178.615459 
L 165.869808 179.604627 
L 164.60949 182.396239 
L 164.566051 183.106482 
L 164.742594 183.691173 
L 164.069151 185.176852 
L 164.037252 185.857931 
L 164.429454 187.005428 
L 164.692112 187.542052 
L 164.586607 188.171781 
L 164.143465 189.010177 
L 163.486251 191.733509 
L 162.592237 193.77993 
L 161.790083 195.014801 
L 159.926908 200.355919 
L 158.962303 204.166752 
L 158.889151 205.496694 
L 158.444098 207.784422 
L 158.442073 209.001301 
L 158.741839 210.908939 
L 159.075676 212.016785 
L 159.372009 214.32193 
L 159.242487 218.446861 
L 159.178732 224.558398 
L 160.548946 228.928867 
L 161.784157 233.012175 
L 162.613956 238.62408 
L 162.567607 239.85788 
L 162.655887 241.046769 
L 162.922238 242.301725 
L 163.481753 245.692188 
L 163.323964 249.805311 
L 163.49658 252.897382 
L 163.484797 254.0409 
L 163.630064 255.037757 
L 164.202314 256.621528 
L 165.328482 258.660997 
L 166.436316 260.147767 
L 167.183455 261.687465 
L 167.863406 262.641281 
L 167.667047 262.753219 
L 167.724604 262.830259 
L 167.951637 263.97965 
L 168.476973 264.98058 
L 168.817266 265.176852 
L 169.148805 266.575482 
L 169.694848 267.64431 
L 169.795801 268.265455 
L 169.072496 267.895666 
L 169.006816 268.078585 
L 169.313273 268.604147 
L 169.334923 269.053929 
L 169.827942 269.307532 
L 170.654761 269.079378 
L 171.466176 268.474935 
L 172.312302 267.617302 
L 173.316514 266.939804 
L 174.475176 266.629792 
L 175.768624 266.752954 
L 177.132876 266.692161 
L 178.14804 266.400042 
L 178.995369 266.401339 
L 180.06442 266.794311 
L 181.412689 267.098476 
L 182.483782 266.766328 
L 183.306188 266.207765 
L 184.125762 266.432022 
L 185.634034 266.718161 
L 187.090149 266.811986 
L 188.686921 265.976621 
L 190.341701 264.583371 
L 194.22048 262.576578 
L 195.588737 262.532604 
L 196.575737 262.70443 
L 197.437234 262.191529 
L 198.202591 261.213984 
L 198.951238 259.532603 
L 199.473284 258.025638 
L 200.392906 257.087306 
L 201.595068 256.338184 
L 204.571796 255.582674 
L 207.627712 254.524391 
L 208.946508 254.136349 
L 210.248797 253.441828 
L 212.16482 252.007505 
L 214.183686 250.996426 
L 214.653432 250.427746 
L 214.864392 248.71964 
L 216.607902 243.131299 
L 217.790474 241.292444 
L 219.093532 241.119024 
L 221.213678 242.798389 
L 221.777604 242.380401 
L 222.096607 241.270829 
L 222.171179 240.065827 
L 221.937013 239.232725 
L 222.05288 239.141286 
L 222.957544 239.825292 
L 223.190285 239.910308 
L 223.27309 240.25281 
L 223.213422 240.575119 
L 223.310242 240.459259 
L 223.591884 239.83344 
L 223.755398 239.926011 
L 224.345466 239.6593 
L 225.523383 238.653099 
L 227.261564 237.435608 
L 228.715904 236.779492 
L 229.226469 237.222812 
L 228.972779 239.136841 
L 229.144717 241.320901 
L 230.182857 242.50625 
L 232.063674 242.870102 
L 235.266017 242.335192 
L 239.358421 242.113142 
L 242.834747 242.506921 
L 245.379526 242.99887 
L 246.968353 243.543042 
L 247.708839 244.55943 
L 246.937514 245.847813 
L 244.084895 249.575318 
L 241.663533 251.236753 
L 238.89136 252.072582 
L 236.308782 252.155908 
L 233.981598 251.548052 
L 232.026657 250.449803 
L 230.536857 248.73589 
L 229.558225 246.466169 
L 227.6498 241.423238 
L 225.391012 235.687734 
L 224.581694 233.709508 
L 224.426279 234.03537 
L 224.629247 235.904613 
L 225.186057 237.946934 
L 225.8147 239.606208 
L 226.208197 241.072668 
L 226.427453 242.561493 
L 227.736173 247.469296 
L 228.514939 248.921764 
L 229.477418 250.336477 
L 231.346306 254.026114 
L 232.34234 255.942819 
L 233.191107 257.323912 
L 233.842099 258.842736 
L 234.731326 260.485069 
L 236.215268 262.47593 
L 237.221937 263.775869 
L 238.610201 265.266397 
L 241.957127 268.070053 
L 245.433074 271.606578 
L 246.663795 274.079319 
L 247.478824 275.095792 
L 248.497651 275.689485 
L 249.551419 276.57357 
L 253.012983 278.517747 
L 254.458131 279.589346 
L 255.878721 280.206235 
L 257.169116 281.001891 
L 259.573962 282.761732 
L 261.092757 283.433282 
L 262.438956 284.237818 
L 263.543907 285.208626 
L 264.52812 286.533156 
L 265.615009 290.210259 
L 266.063387 291.89387 
L 266.579429 293.087646 
L 267.264116 293.45313 
L 267.835064 293.374749 
L 268.423604 292.617629 
L 269.723765 291.133818 
L 271.028652 290.157831 
L 271.895596 290.171936 
L 272.146171 290.564501 
L 272.221822 290.951391 
L 270.589415 292.682185 
L 270.58771 293.172295 
L 270.868646 293.927283 
L 272.314023 296.461438 
L 272.374064 297.596456 
L 272.178984 298.682745 
L 272.105439 301.39356 
L 272.791204 306.108905 
L 273.131718 308.438986 
L 273.870056 310.191861 
L 274.746922 311.476426 
L 276.433337 314.470227 
L 277.097664 315.473349 
L 277.349821 316.3505 
L 277.010675 318.691423 
L 276.850683 320.508655 
L 276.503154 322.561424 
L 275.849023 324.546501 
L 274.17816 328.430842 
L 273.33218 330.441805 
L 270.394213 334.8274 
L 269.303812 336.764578 
L 268.847808 338.875761 
L 268.705902 340.990454 
L 268.910519 343.09482 
L 269.540443 346.401716 
L 269.987373 347.809336 
L 270.508618 349.074188 
L 271.6148 353.014046 
L 272.261655 353.954403 
L 272.531365 354.81493 
L 272.990578 355.703431 
L 273.203225 356.512218 
L 273.053831 357.282172 
L 272.707817 357.944508 
L 271.175378 359.180071 
L 271.245162 359.220966 
L 271.399048 359.269514 
L 271.292203 359.403026 
L 271.077767 359.469716 
L 270.650454 359.26206 
L 270.287868 358.625511 
L 270.254799 357.823103 
L 270.412268 357.087518 
L 270.858049 356.350064 
L 271.432543 355.777566 
L 271.964819 354.966776 
L 273.097009 354.085612 
L 274.448689 353.37843 
L 276.028482 352.738593 
L 277.693046 352.401869 
L 280.779893 352.035913 
L 282.287745 351.804966 
L 283.362206 351.194051 
L 284.258252 350.52199 
L 284.800797 349.549884 
L 284.790537 348.44226 
L 284.395181 347.914516 
L 284.903722 348.013085 
L 285.988082 347.294831 
L 288.640349 344.368734 
L 292.137707 342.633653 
L 296.772895 339.410408 
L 298.197409 337.305562 
L 298.556798 335.788811 
L 297.824949 334.227061 
L 297.577601 332.600512 
L 297.653871 330.464957 
L 298.226738 328.778707 
L 299.097167 327.503066 
L 299.8586 326.012055 
L 300.036711 323.918589 
L 299.249847 321.702071 
L 297.803534 319.727695 
L 296.792506 318.038987 
L 296.240782 314.308219 
L 295.174505 310.540175 
L 295.093495 308.878246 
L 294.395992 306.857067 
L 293.5338 304.839572 
L 292.750433 302.605476 
L 293.174852 300.1334 
L 294.554044 297.601686 
L 295.546909 295.141857 
L 296.073547 292.499172 
L 295.966286 290.182786 
L 295.60582 288.578588 
L 294.956961 287.233787 
L 294.02413 285.769577 
L 293.510531 284.542445 
L 293.752532 283.559781 
L 295.839675 281.231501 
L 296.586637 280.186152 
L 297.390093 279.483022 
L 298.355591 278.892655 
L 299.148278 277.854874 
L 300.205255 274.424097 
L 301.415088 272.726384 
L 303.237271 271.698891 
L 307.427699 270.948286 
L 309.234765 270.445137 
L 311.623059 269.868687 
L 311.76541 269.644221 
L 311.314577 269.403228 
L 311.154031 269.712855 
L 311.017542 269.814219 
L 311.025067 269.511301 
L 311.181441 268.949936 
L 311.196962 268.623301 
L 311.341367 268.571495 
L 311.460748 268.348343 
L 310.928934 266.208656 
L 310.599619 264.079464 
L 310.252949 263.271947 
L 310.089565 262.11678 
L 310.394647 260.36426 
L 309.93701 258.096325 
L 308.712557 256.032042 
L 307.408541 254.600704 
L 306.68949 253.547227 
L 305.540359 250.707757 
L 304.783114 250.298689 
L 302.146161 250.390855 
L 300.470862 250.314631 
L 299.124658 249.775926 
L 298.153445 248.60606 
L 297.842505 247.432201 
L 297.614882 244.631013 
L 296.958056 240.469293 
L 296.74967 238.571204 
L 297.224773 235.454033 
L 296.591418 233.946726 
L 295.534584 232.234395 
L 292.185271 228.120431 
L 291.455108 226.157545 
L 290.933416 224.004932 
L 291.113741 221.943703 
L 291.452915 220.345328 
L 291.131163 218.870541 
L 290.374841 216.958699 
L 288.865123 215.274948 
L 287.993346 213.903936 
L 284.089491 206.59264 
L 283.339852 205.004831 
L 282.938033 203.742731 
L 282.072996 202.575109 
L 281.316396 201.010912 
L 280.896901 198.941215 
L 280.461042 194.780503 
L 279.757436 192.68058 
L 278.620084 190.811653 
L 277.200811 189.20135 
L 275.54938 187.817768 
L 273.945014 186.776324 
L 272.862702 185.552903 
L 272.012159 184.101501 
L 271.86033 182.398784 
L 272.341843 180.647835 
L 272.298897 178.964038 
L 271.702342 177.462576 
L 270.716996 175.905998 
L 268.441399 172.787192 
L 266.885556 170.301963 
L 264.674161 164.545543 
L 263.756424 163.734346 
L 262.506439 163.201022 
L 261.123468 162.933879 
L 260.287764 162.364371 
L 260.181464 162.53057 
L 259.588766 162.218481 
L 258.76362 161.544573 
L 258.13475 160.865244 
L 257.100282 160.199205 
L 256.469582 159.503216 
L 257.090348 159.477874 
L 257.192749 159.29078 
L 256.967989 159.168629 
L 256.99057 159.03576 
L 257.269643 158.955635 
L 257.429574 158.332232 
L 257.23689 157.387832 
L 257.499188 156.477919 
L 257.848332 156.195711 
L 258.254018 156.232499 
L 258.674024 156.060507 
L 259.068686 155.326221 
L 259.52933 153.252135 
L 259.25662 152.315009 
L 258.775003 151.738465 
L 258.210141 151.790628 
L 257.36763 152.44524 
L 255.232299 154.744761 
L 254.020494 156.129795 
L 252.541431 158.303131 
L 252.390286 157.620611 
L 251.917369 151.146752 
L 252.118755 148.881733 
L 252.03461 146.862195 
L 251.622208 145.375355 
L 249.797159 142.828952 
L 249.316243 141.413826 
L 249.184558 140.258793 
L 249.190448 132.254824 
L 249.612198 126.222148 
L 250.273833 123.797583 
L 251.27815 119.582661 
L 251.578379 117.100697 
L 251.639729 114.303883 
L 251.155142 108.357764 
L 251.003201 105.540708 
L 251.622647 103.575531 
L 253.019713 102.612778 
L 254.937433 102.43508 
L 257.017877 102.889778 
L 258.768985 102.994279 
L 259.703131 102.036526 
L 260.333266 99.583447 
L 260.725619 96.707922 
L 260.495751 94.222051 
L 259.648616 89.670792 
L 259.619748 87.817008 
L 260.600155 86.602131 
L 261.809928 86.043696 
L 262.708037 85.240977 
L 263.049366 83.529096 
L 262.86163 81.235692 
L 261.746181 78.534014 
L 257.811214 73.233032 
L 256.767652 71.11884 
L 256.371158 69.604054 
L 256.793754 68.504135 
L 258.376796 66.874966 
L 258.887184 65.783247 
L 259.141934 64.757199 
L 259.141178 63.303163 
L 258.878688 61.489748 
L 257.053616 57.424386 
L 258.097712 57.454842 
L 258.296717 57.488388 
L 258.589067 57.305203 
L 258.538373 57.179442 
L 258.703242 57.246744 
L 258.82785 56.750142 
L 258.698647 56.800443 
L 258.774032 57.281126 
L 259.574533 58.11208 
L 260.515799 58.994207 
L 260.680055 58.519372 
L 260.736715 56.026084 
L 262.372115 50.131571 
L 263.55537 48.354808 
L 266.396912 47.456324 
L 267.850658 46.4414 
L 268.986112 45.242781 
L 271.350954 43.138521 
L 272.943318 42.234316 
L 280.391481 37.323546 
L 281.363226 36.221748 
L 282.615804 35.145946 
L 284.137556 34.167292 
L 286.904334 31.990852 
L 287.773866 31.929034 
L 288.807646 32.6267 
L 290.424525 34.587529 
L 291.835972 37.394657 
L 293.8494 44.193373 
L 295.13806 46.068035 
L 296.716404 46.18995 
L 298.460914 45.326001 
L 302.711585 42.718513 
L 304.478661 42.374752 
L 306.048199 42.795784 
L 307.268518 43.876717 
L 308.155383 45.472389 
L 309.017801 46.762164 
L 309.860296 47.750053 
L 311.071427 48.277635 
L 312.411414 48.62476 
L 313.862595 48.430119 
L 315.634551 47.718025 
L 318.031586 47.167548 
L 320.248769 47.275698 
L 321.806924 48.58462 
L 322.678324 50.652294 
L 322.805685 53.810611 
L 323.538972 54.674364 
L 324.758527 55.29238 
L 326.021012 55.781358 
L 327.108425 55.861362 
L 328.555929 55.215409 
L 329.97658 54.231522 
L 332.176467 52.26367 
L 332.637329 52.254474 
L 332.908883 52.874911 
L 332.41482 54.62847 
L 332.15581 55.198623 
L 331.914639 55.222568 
L 331.889286 55.096108 
L 332.220792 55.16264 
L 332.259343 55.505209 
L 331.634245 57.100307 
L 330.652467 58.380934 
L 329.525354 59.151199 
L 329.627228 59.405349 
L 331.795396 60.731055 
L 332.216906 61.591888 
L 331.714004 62.736521 
L 329.637833 65.221347 
L 329.227463 66.17452 
L 329.487144 66.84151 
L 330.46389 66.722262 
L 333.571131 64.937912 
L 336.191196 63.782287 
L 339.619201 62.63356 
L 343.319662 61.866844 
L 345.727255 62.237268 
L 346.506108 62.995961 
L 346.03601 64.080473 
L 345.031761 65.094974 
L 344.138221 66.194803 
L 344.365659 67.512672 
L 345.423108 68.916438 
L 349.166358 71.447547 
L 351.253459 73.268869 
L 352.383574 75.198503 
L 352.495953 77.245662 
L 351.851875 79.532343 
L 351.033851 81.967948 
L 350.449168 84.340496 
L 350.401597 86.4389 
L 350.700236 88.133894 
L 351.41119 89.484063 
L 355.485964 94.004729 
L 356.106137 95.552425 
L 355.420737 98.91094 
L 355.408619 100.51367 
L 355.794843 102.813198 
L 356.169339 103.448573 
L 359.50619 105.798814 
L 360.526666 106.761157 
L 360.807286 107.889583 
L 359.84227 113.915277 
L 359.985385 116.175123 
L 360.655344 121.025314 
L 360.893615 122.024909 
L 361.05856 121.968585 
L 361.080117 121.716303 
L 360.276882 120.81514 
L 360.196266 120.3504 
L 360.225405 120.671921 
L 360.652377 121.328145 
L 360.620786 121.54646 
L 360.418465 121.63066 
L 360.310963 121.239023 
L 360.473448 120.103195 
L 360.748982 119.573962 
L 358.905518 123.247389 
L 357.254615 125.930635 
L 355.169403 128.282977 
L 355.169403 128.282977 
" style="fill:none;stroke:#55a868;stroke-linecap:round;stroke-opacity:0.75;"/>
   </g>
   <g id="line2d_4">
    <path clip-path="url(#peb854b9d45)" d="M 176.545579 161.895299 
L 176.550873 161.957219 
L 176.568018 161.648331 
L 176.606089 161.681022 
L 176.861757 161.73793 
L 176.855965 161.720589 
L 176.964442 161.695387 
L 176.951913 161.731334 
L 176.972084 161.824434 
L 176.859932 161.791185 
L 176.824613 161.717548 
L 176.970454 161.784484 
L 177.038291 161.755695 
L 176.966572 161.816946 
L 177.021317 161.844072 
L 177.070653 161.876812 
L 176.900939 161.78497 
L 177.119435 161.819889 
L 177.301512 161.895516 
L 177.293975 161.771517 
L 176.655678 162.12084 
L 175.191791 162.501002 
L 175.156611 162.638902 
L 175.005557 162.688393 
L 175.107497 162.769328 
L 175.965277 162.975137 
L 176.085209 163.111409 
L 176.137989 163.04786 
L 176.250514 162.96744 
L 176.155767 162.828052 
L 175.764237 162.761112 
L 174.86721 162.870018 
L 175.001799 163.056554 
L 174.935366 163.098242 
L 174.161415 163.336978 
L 174.262225 163.620462 
L 174.77578 163.80453 
L 174.919454 164.027611 
L 174.632903 164.389656 
L 174.522868 164.961561 
L 174.754009 165.508342 
L 174.870533 166.121031 
L 174.688613 166.643534 
L 174.905055 168.056977 
L 175.019652 169.697891 
L 174.936572 170.627982 
L 174.697835 171.52827 
L 174.844523 173.013998 
L 174.184754 173.548412 
L 173.714125 174.129532 
L 173.556345 174.625116 
L 172.706757 175.437223 
L 171.788253 175.898605 
L 171.027377 176.740009 
L 170.215032 177.196956 
L 168.337542 179.990454 
L 166.918979 181.261257 
L 163.449477 184.896383 
L 161.495332 186.160336 
L 160.943476 186.920897 
L 160.952998 187.701698 
L 160.307401 189.397312 
L 159.236184 191.082751 
L 158.778725 191.677894 
L 157.305158 193.133339 
L 155.638465 194.528148 
L 154.929047 195.161563 
L 153.845539 195.622502 
L 152.764237 196.301232 
L 151.609371 197.236321 
L 148.505573 200.828983 
L 145.984581 203.569731 
L 144.562451 205.64753 
L 143.972458 206.715048 
L 143.721213 207.678101 
L 143.402671 208.045104 
L 142.840612 208.999603 
L 142.461324 210.141831 
L 141.302666 212.548439 
L 139.999041 214.925572 
L 139.31532 215.79962 
L 138.099432 218.097024 
L 136.898344 221.13314 
L 136.735393 222.453172 
L 135.932324 224.586638 
L 135.551577 226.030114 
L 134.994814 229.040659 
L 134.528853 230.393864 
L 133.275625 232.647674 
L 132.824024 233.967213 
L 132.256569 235.252875 
L 131.830305 236.593523 
L 131.341661 237.685575 
L 130.743711 238.743147 
L 130.242348 240.122998 
L 129.416005 241.753892 
L 127.494598 246.241597 
L 126.822849 247.454096 
L 126.412279 248.641449 
L 125.874812 249.757333 
L 125.575828 250.959482 
L 125.796987 253.545527 
L 125.62201 254.46588 
L 125.51447 255.800976 
L 125.993747 257.984038 
L 125.803449 258.803544 
L 125.396675 259.492359 
L 125.530788 260.305614 
L 125.764835 260.750925 
L 125.583827 261.34725 
L 124.436313 262.281006 
L 124.321131 262.531684 
L 124.44841 262.743436 
L 124.124784 263.197342 
L 124.141956 263.350989 
L 123.925067 263.657415 
L 124.202913 264.349956 
L 124.370978 264.599939 
L 125.405498 264.83526 
L 127.605665 264.779196 
L 128.753458 264.980718 
L 129.916493 265.070347 
L 130.931854 265.58416 
L 133.191231 266.25428 
L 133.749859 266.645125 
L 134.350585 267.311273 
L 135.498709 267.957796 
L 137.815228 268.921306 
L 138.233633 269.321275 
L 139.010577 269.815938 
L 141.251556 270.577986 
L 143.419032 270.822777 
L 150.963078 272.115685 
L 152.93638 272.225814 
L 154.207782 272.073389 
L 155.322152 272.237635 
L 158.990628 271.923471 
L 165.372782 270.770031 
L 166.614853 270.663911 
L 168.23479 270.228076 
L 169.231 269.782512 
L 170.262684 269.458832 
L 171.429331 268.888362 
L 174.174916 267.946899 
L 175.553046 267.330976 
L 179.763888 266.420415 
L 180.965671 265.890191 
L 181.630836 266.061806 
L 182.438717 266.132825 
L 183.242286 265.850233 
L 183.474971 265.838671 
L 184.50336 265.472417 
L 184.491912 265.602896 
L 184.779474 265.530243 
L 185.040802 265.319222 
L 185.050369 265.567367 
L 185.074783 265.48302 
L 185.273565 265.42687 
L 185.385871 265.51346 
L 185.324905 265.74997 
L 185.353539 266.755501 
L 185.783792 267.628707 
L 186.447208 267.837133 
L 187.185722 267.93056 
L 188.231402 268.582913 
L 188.957982 269.517914 
L 189.477547 270.791409 
L 190.147318 272.032129 
L 191.225991 273.433595 
L 194.172678 275.872564 
L 195.594832 276.826571 
L 196.887688 277.861325 
L 199.572167 280.386686 
L 200.898002 281.775201 
L 203.55826 283.701198 
L 204.777826 284.885213 
L 209.968315 291.179025 
L 212.645769 294.323572 
L 213.760216 295.637577 
L 215.100806 296.68127 
L 218.18267 299.545677 
L 221.025434 301.276885 
L 224.165433 302.428006 
L 226.945383 303.841001 
L 228.780044 304.347656 
L 231.716162 304.570553 
L 236.484838 304.818001 
L 241.612669 304.93991 
L 243.313638 305.246029 
L 245.318633 305.200854 
L 247.319736 304.683607 
L 252.194267 303.958714 
L 253.900347 303.944083 
L 255.819948 303.331518 
L 259.158272 302.687815 
L 260.937611 302.325947 
L 264.110215 300.889202 
L 266.500627 300.268533 
L 267.613858 299.779411 
L 268.987125 299.509218 
L 270.66462 298.753648 
L 272.122617 297.73365 
L 273.538649 297.06701 
L 274.9026 296.806888 
L 276.291161 296.238712 
L 279.349746 294.614034 
L 280.577783 294.165698 
L 281.815874 293.934564 
L 283.073998 293.513781 
L 284.482464 292.58954 
L 286.823191 291.558434 
L 287.650642 291.397738 
L 288.392153 291.122523 
L 289.393479 290.640911 
L 289.943609 290.559412 
L 289.953285 290.717791 
L 290.076074 290.847181 
L 290.578816 290.716798 
L 291.281437 290.141435 
L 291.37465 291.07989 
L 292.066678 291.766916 
L 294.841443 292.743923 
L 295.830345 293.015472 
L 296.659392 293.67247 
L 297.519766 294.549097 
L 298.848365 295.241996 
L 304.094692 297.196636 
L 305.324521 298.077828 
L 306.969715 299.108334 
L 313.364494 302.186382 
L 316.223939 304.012776 
L 317.606977 305.065676 
L 320.698054 307.894709 
L 323.679899 310.448799 
L 325.08924 311.818492 
L 326.60932 312.884079 
L 330.765687 315.127283 
L 335.294395 318.301988 
L 339.313262 320.253679 
L 340.815324 321.154977 
L 343.212026 322.243166 
L 344.106852 322.240134 
L 344.975716 322.435275 
L 346.457924 323.400523 
L 347.957602 324.374022 
L 348.667101 324.212736 
L 348.755345 324.25239 
L 348.83502 324.473121 
L 349.197024 324.551056 
L 349.365156 324.626951 
L 349.697709 323.628106 
L 350.7699 322.127338 
L 351.17024 320.829315 
L 351.371366 319.10171 
L 351.10741 317.068917 
L 351.042334 315.151296 
L 350.860371 313.333663 
L 350.327934 311.793398 
L 349.683954 309.332332 
L 349.200609 308.283267 
L 349.096776 303.614727 
L 348.432641 302.833674 
L 347.717301 302.222003 
L 345.895769 297.614342 
L 344.997841 296.02315 
L 344.133985 294.785702 
L 343.607599 293.690701 
L 342.749893 292.22505 
L 339.139631 287.845725 
L 338.71243 286.608076 
L 337.747901 285.026713 
L 336.004776 283.232074 
L 334.554217 281.530424 
L 331.964897 277.809253 
L 330.509521 275.96741 
L 329.07013 274.37622 
L 327.604846 271.55616 
L 324.775592 268.400372 
L 323.2793 265.397821 
L 321.892842 263.778889 
L 320.433107 262.275517 
L 316.133708 258.666574 
L 315.727388 257.975955 
L 314.919145 257.192362 
L 313.402248 255.965581 
L 312.52255 254.492054 
L 311.834762 253.081108 
L 310.807352 251.731872 
L 308.086264 248.840947 
L 307.205335 247.64689 
L 306.872337 246.337636 
L 306.697556 245.05572 
L 302.713866 237.197895 
L 301.518663 234.627272 
L 301.442062 234.163742 
L 301.85887 233.10407 
L 301.807623 232.917542 
L 301.314636 232.641513 
L 301.568723 232.060581 
L 301.246763 231.735153 
L 300.096848 231.523151 
L 299.964335 231.2426 
L 298.040768 230.863067 
L 296.833175 230.877163 
L 295.997447 231.01888 
L 295.124131 230.494427 
L 293.187293 229.925768 
L 291.744971 229.258386 
L 290.378898 228.139992 
L 289.151825 226.961247 
L 288.399989 224.493127 
L 287.42325 223.382491 
L 286.051461 222.202614 
L 283.57426 219.414538 
L 279.369423 214.646296 
L 278.216061 212.982723 
L 276.950633 211.469447 
L 276.043008 210.205056 
L 275.262233 208.878087 
L 272.074703 204.404194 
L 269.068268 201.149705 
L 267.987312 199.521738 
L 266.095066 195.667967 
L 264.232983 192.901697 
L 263.467608 191.34178 
L 261.260865 188.014157 
L 260.149463 186.413616 
L 259.147246 184.754887 
L 257.36086 180.992675 
L 256.50816 179.452675 
L 254.68712 176.573939 
L 253.99369 175.00669 
L 252.826134 173.259483 
L 251.94378 171.627179 
L 251.199246 170.507586 
L 248.210775 164.74131 
L 247.080111 163.4513 
L 245.918128 162.352933 
L 244.813783 160.656489 
L 243.401837 158.945746 
L 241.504129 156.920397 
L 240.232702 155.03881 
L 239.454237 153.678497 
L 239.143616 152.833184 
L 238.267001 151.933112 
L 236.330126 149.055553 
L 235.374617 147.327286 
L 234.032101 145.706412 
L 232.308287 144.146302 
L 230.937994 142.406271 
L 230.476646 141.265644 
L 230.387513 140.351288 
L 229.577408 139.323353 
L 227.825204 136.448977 
L 226.026353 134.175694 
L 222.356832 131.145999 
L 222.476884 130.731855 
L 221.95749 130.366415 
L 221.611459 129.802861 
L 221.261736 129.664537 
L 220.94839 129.357204 
L 220.71641 128.68553 
L 220.109706 128.283699 
L 220.582986 128.486666 
L 220.777773 128.57871 
L 220.763514 128.511694 
L 220.895861 127.829275 
L 220.802225 127.638951 
L 220.781893 127.258876 
L 220.328155 126.244008 
L 219.460711 125.243867 
L 219.767357 124.130112 
L 221.618867 123.704124 
L 222.860242 123.295256 
L 223.239088 122.313698 
L 222.292723 119.991712 
L 220.619006 118.247737 
L 218.800411 117.30179 
L 218.240144 116.787841 
L 218.075955 116.352465 
L 219.025287 114.84018 
L 218.954609 112.750989 
L 219.30629 110.897645 
L 219.847866 109.516457 
L 220.808699 107.787475 
L 221.805819 104.187596 
L 222.642496 102.995651 
L 223.897476 101.612677 
L 225.395865 100.150854 
L 226.12727 98.440754 
L 226.542318 96.771042 
L 227.43602 94.923364 
L 229.118615 93.288978 
L 230.211187 92.452276 
L 232.952701 89.840494 
L 234.16108 88.499233 
L 235.560582 87.223125 
L 237.501254 84.656545 
L 238.980714 83.256972 
L 242.296064 81.148367 
L 244.272578 80.154641 
L 245.669431 79.198735 
L 248.576375 76.780524 
L 249.860674 74.992401 
L 253.21588 72.00853 
L 254.69096 70.801793 
L 256.594793 69.810338 
L 258.609498 69.531477 
L 260.151241 70.001289 
L 261.690547 70.706613 
L 264.071517 72.797589 
L 266.962116 75.867549 
L 269.061283 77.466315 
L 270.840368 76.949901 
L 272.793627 74.96017 
L 274.209692 72.441464 
L 275.057169 70.140928 
L 276.932366 68.978623 
L 279.02303 69.257312 
L 281.122412 71.028217 
L 282.878738 71.721451 
L 284.079045 70.538151 
L 285.360918 69.107551 
L 286.634665 66.768056 
L 287.163685 63.79421 
L 288.344192 60.67053 
L 288.546573 57.174297 
L 289.117101 55.313248 
L 290.874108 55.262268 
L 294.413327 57.793566 
L 295.886334 58.289092 
L 296.758164 57.208246 
L 297.900072 54.261935 
L 298.387353 52.193146 
L 298.718895 49.4697 
L 299.247178 47.202539 
L 299.577396 46.628911 
L 299.771565 47.040122 
L 300.714211 50.381016 
L 300.762112 50.104466 
L 301.003715 49.940541 
L 301.342291 49.859178 
L 301.546996 50.065448 
L 301.484225 50.740737 
L 302.241344 51.835502 
L 302.885177 53.020682 
L 303.088093 53.648616 
L 303.296411 53.681637 
L 303.090281 52.128576 
L 303.725952 49.423729 
L 303.20087 44.756149 
L 301.418434 40.030514 
L 301.204041 37.219015 
L 303.215617 39.353856 
L 304.737855 40.277792 
L 309.151827 42.111534 
L 310.581649 43.195856 
L 314.115844 44.988012 
L 315.407404 46.082407 
L 317.015257 47.126288 
L 318.609063 47.840555 
L 320.105742 48.226529 
L 323.100501 49.684913 
L 324.624315 50.399209 
L 326.091096 51.269316 
L 326.873393 52.833154 
L 328.282871 55.27416 
L 330.114729 58.043333 
L 331.374167 61.079159 
L 332.695499 63.701302 
L 334.141649 65.24661 
L 335.859452 65.674176 
L 337.616275 65.245188 
L 339.402137 61.765826 
L 340.866984 60.461479 
L 341.967703 61.735825 
L 342.839766 63.1156 
L 342.715096 66.204283 
L 342.698537 70.252158 
L 343.460057 75.621423 
L 344.42603 80.264284 
L 345.171941 82.711571 
L 345.983241 84.184733 
L 346.810341 85.366217 
L 348.447143 86.035751 
L 350.542413 86.079419 
L 353.758606 85.280547 
L 353.076367 86.221883 
L 351.348862 88.220797 
L 349.865608 91.791651 
L 350.022143 95.126661 
L 351.548745 99.719171 
L 352.721703 101.39327 
L 354.93546 102.038686 
L 357.889632 101.624991 
L 359.911413 100.856679 
L 361.164867 100.105065 
L 360.847365 99.752495 
L 358.672283 100.099613 
L 357.317788 100.79713 
L 356.711195 101.744932 
L 356.124957 102.197661 
L 355.702651 102.238795 
L 356.121905 102.707806 
L 355.454506 103.2063 
L 354.396618 104.283891 
L 353.997553 104.988271 
L 353.898159 104.907506 
L 353.929851 104.520772 
L 355.143742 103.360983 
L 361.412592 103.160803 
L 364.549933 103.317249 
L 364.131398 103.592175 
L 361.901638 103.799407 
L 358.655676 104.478995 
L 357.961194 105.147635 
L 358.143463 106.014505 
L 358.89285 106.689567 
L 359.639196 107.844479 
L 359.253689 109.471563 
L 357.769444 112.676443 
L 357.052085 114.356523 
L 356.217814 115.875606 
L 355.833445 117.027013 
L 353.862316 117.421289 
L 351.147751 118.143431 
L 347.549877 119.451393 
L 343.343516 121.334475 
L 340.391676 123.391329 
L 338.559562 125.292374 
L 337.807088 126.367618 
L 337.039136 127.773389 
L 336.407478 129.231954 
L 334.857624 130.196788 
L 332.393508 132.316959 
L 330.963423 135.770064 
L 330.039598 140.099474 
L 329.151415 145.524821 
L 329.456846 146.606749 
L 328.956219 147.252068 
L 326.694694 147.694098 
L 324.264947 147.69478 
L 321.184915 147.378121 
L 320.432481 147.44923 
L 320.125857 147.866905 
L 319.125252 150.204872 
L 319.147674 151.45226 
L 319.059213 152.824756 
L 317.985425 154.137036 
L 316.469902 155.445577 
L 312.759303 157.186998 
L 310.979603 157.563011 
L 309.897414 158.092922 
L 309.402421 158.851057 
L 309.344861 159.921715 
L 310.254335 161.839017 
L 310.118824 162.144841 
L 308.338337 161.882803 
L 308.433734 161.843334 
L 308.678326 161.435607 
L 308.431592 161.661467 
L 308.16508 161.725226 
L 307.975251 161.857867 
L 307.834567 161.749788 
L 307.83906 161.747151 
L 307.907238 161.994006 
L 307.825047 161.976729 
L 308.101731 161.857834 
L 308.215644 161.251221 
L 306.244443 161.736308 
L 302.655779 162.436518 
L 300.357741 162.404973 
L 298.439803 161.542459 
L 298.439803 161.542459 
" style="fill:none;stroke:#c44e52;stroke-linecap:round;stroke-opacity:0.75;"/>
   </g>
   <g id="patch_3">
    <path d="M 72.027 375.84675 
L 72.027 15.552 
" style="fill:none;stroke:#262626;stroke-linecap:square;stroke-linejoin:miter;stroke-width:1.25;"/>
   </g>
   <g id="patch_4">
    <path d="M 416.448 375.84675 
L 416.448 15.552 
" style="fill:none;stroke:#262626;stroke-linecap:square;stroke-linejoin:miter;stroke-width:1.25;"/>
   </g>
   <g id="patch_5">
    <path d="M 72.027 375.84675 
L 416.448 375.84675 
" style="fill:none;stroke:#262626;stroke-linecap:square;stroke-linejoin:miter;stroke-width:1.25;"/>
   </g>
   <g id="patch_6">
    <path d="M 72.027 15.552 
L 416.448 15.552 
" style="fill:none;stroke:#262626;stroke-linecap:square;stroke-linejoin:miter;stroke-width:1.25;"/>
   </g>
   <g id="legend_1">
    <g id="patch_7">
     <path d="M 81.267 104.34675 
L 189.25125 104.34675 
Q 191.89125 104.34675 191.89125 101.70675 
L 191.89125 24.792 
Q 191.89125 22.152 189.25125 22.152 
L 81.267 22.152 
Q 78.627 22.152 78.627 24.792 
L 78.627 101.70675 
Q 78.627 104.34675 81.267 104.34675 
z
" style="fill:#ffffff;opacity:0.8;stroke:#cccccc;stroke-linejoin:miter;"/>
    </g>
    <g id="line2d_5">
     <path d="M 83.907 32.841938 
L 110.307 32.841938 
" style="fill:none;stroke:#000000;stroke-dasharray:3.7,1.6;stroke-dashoffset:0;stroke-opacity:0.5;"/>
    </g>
    <g id="line2d_6"/>
    <g id="text_14">
     <!-- gt_imu -->
     <g style="fill:#262626;" transform="translate(120.867 37.461938)scale(0.132 -0.132)">
      <defs>
       <path d="M 52.484375 46.6875 
L 52.484375 1.125 
Q 52.484375 -10.0625 46.328125 -16.140625 
Q 40.1875 -22.21875 28.8125 -22.21875 
Q 23.6875 -22.21875 19 -21.28125 
Q 14.3125 -20.359375 10.015625 -18.5 
L 10.015625 -7.625 
L 14.703125 -7.625 
Q 15.578125 -12.703125 18.84375 -15.046875 
Q 22.125 -17.390625 28.21875 -17.390625 
Q 36.140625 -17.390625 39.8125 -12.921875 
Q 43.5 -8.453125 43.5 1.125 
L 43.5 8.109375 
Q 40.875 3.21875 36.796875 0.890625 
Q 32.71875 -1.421875 26.703125 -1.421875 
Q 17.140625 -1.421875 11.0625 6.171875 
Q 4.984375 13.765625 4.984375 25.984375 
Q 4.984375 38.1875 11.03125 45.75 
Q 17.09375 53.328125 26.703125 53.328125 
Q 32.71875 53.328125 36.796875 51 
Q 40.875 48.6875 43.5 43.796875 
L 43.5 51.90625 
L 61.078125 51.90625 
L 61.078125 46.6875 
z
M 43.5 28.515625 
Q 43.5 37.84375 39.90625 42.765625 
Q 36.328125 47.703125 29.5 47.703125 
Q 22.5625 47.703125 19.015625 42.234375 
Q 15.484375 36.765625 15.484375 25.984375 
Q 15.484375 15.234375 19.015625 9.71875 
Q 22.5625 4.203125 29.5 4.203125 
Q 36.328125 4.203125 39.90625 9.109375 
Q 43.5 14.015625 43.5 23.390625 
z
" id="DejaVuSerif-103"/>
       <path d="M 10.796875 46.6875 
L 2.875 46.6875 
L 2.875 51.90625 
L 10.796875 51.90625 
L 10.796875 68.015625 
L 19.828125 68.015625 
L 19.828125 51.90625 
L 36.71875 51.90625 
L 36.71875 46.6875 
L 19.828125 46.6875 
L 19.828125 13.71875 
Q 19.828125 7.125 21.09375 5.265625 
Q 22.359375 3.421875 25.78125 3.421875 
Q 29.296875 3.421875 30.90625 5.484375 
Q 32.515625 7.5625 32.625 12.203125 
L 39.40625 12.203125 
Q 39.015625 5.125 35.546875 1.84375 
Q 32.078125 -1.421875 25 -1.421875 
Q 17.234375 -1.421875 14.015625 2.015625 
Q 10.796875 5.46875 10.796875 13.71875 
z
" id="DejaVuSerif-116"/>
       <path d="M 50 -19.671875 
L 50 -23.578125 
L 0 -23.578125 
L 0 -19.671875 
z
" id="DejaVuSerif-95"/>
       <path d="M 9.71875 68.015625 
Q 9.71875 70.265625 11.34375 71.921875 
Q 12.984375 73.578125 15.28125 73.578125 
Q 17.53125 73.578125 19.15625 71.921875 
Q 20.796875 70.265625 20.796875 68.015625 
Q 20.796875 65.71875 19.1875 64.109375 
Q 17.578125 62.5 15.28125 62.5 
Q 12.984375 62.5 11.34375 64.109375 
Q 9.71875 65.71875 9.71875 68.015625 
z
M 21.1875 5.171875 
L 29.6875 5.171875 
L 29.6875 0 
L 3.609375 0 
L 3.609375 5.171875 
L 12.203125 5.171875 
L 12.203125 46.6875 
L 3.609375 46.6875 
L 3.609375 51.90625 
L 21.1875 51.90625 
z
" id="DejaVuSerif-105"/>
       <path d="M 35.40625 51.90625 
L 52.203125 51.90625 
L 52.203125 5.171875 
L 60.6875 5.171875 
L 60.6875 0 
L 43.21875 0 
L 43.21875 9.1875 
Q 40.71875 4 36.765625 1.28125 
Q 32.8125 -1.421875 27.59375 -1.421875 
Q 18.953125 -1.421875 14.875 3.484375 
Q 10.796875 8.40625 10.796875 18.890625 
L 10.796875 46.6875 
L 2.6875 46.6875 
L 2.6875 51.90625 
L 19.828125 51.90625 
L 19.828125 21.6875 
Q 19.828125 12.203125 22.140625 8.6875 
Q 24.46875 5.171875 30.421875 5.171875 
Q 36.671875 5.171875 39.9375 9.765625 
Q 43.21875 14.359375 43.21875 23.09375 
L 43.21875 46.6875 
L 35.40625 46.6875 
z
" id="DejaVuSerif-117"/>
      </defs>
      <use xlink:href="#DejaVuSerif-103"/>
      <use x="64.013672" xlink:href="#DejaVuSerif-116"/>
      <use x="104.199219" xlink:href="#DejaVuSerif-95"/>
      <use x="154.199219" xlink:href="#DejaVuSerif-105"/>
      <use x="186.181641" xlink:href="#DejaVuSerif-109"/>
      <use x="281.005859" xlink:href="#DejaVuSerif-117"/>
     </g>
    </g>
    <g id="line2d_7">
     <path d="M 83.907 52.584188 
L 110.307 52.584188 
" style="fill:none;stroke:#4c72b0;stroke-linecap:round;stroke-opacity:0.75;"/>
    </g>
    <g id="line2d_8"/>
    <g id="text_15">
     <!-- featsense -->
     <g style="fill:#262626;" transform="translate(120.867 57.204188)scale(0.132 -0.132)">
      <defs>
       <path d="M 43.015625 63.71875 
L 38.28125 63.71875 
Q 38.234375 67.390625 36.203125 69.28125 
Q 34.1875 71.1875 30.328125 71.1875 
Q 25.296875 71.1875 23.234375 68.421875 
Q 21.1875 65.671875 21.1875 58.59375 
L 21.1875 51.90625 
L 35.6875 51.90625 
L 35.6875 46.6875 
L 21.1875 46.6875 
L 21.1875 5.171875 
L 32.71875 5.171875 
L 32.71875 0 
L 3.609375 0 
L 3.609375 5.171875 
L 12.203125 5.171875 
L 12.203125 46.6875 
L 3.609375 46.6875 
L 3.609375 51.90625 
L 12.203125 51.90625 
L 12.203125 58.40625 
Q 12.203125 67.09375 16.71875 71.53125 
Q 21.234375 75.984375 29.984375 75.984375 
Q 33.25 75.984375 36.515625 75.390625 
Q 39.796875 74.8125 43.015625 73.578125 
z
" id="DejaVuSerif-102"/>
       <path d="M 54.203125 25 
L 15.484375 25 
L 15.484375 24.609375 
Q 15.484375 14.109375 19.4375 8.765625 
Q 23.390625 3.421875 31.109375 3.421875 
Q 37.015625 3.421875 40.796875 6.515625 
Q 44.578125 9.625 46.09375 15.71875 
L 53.328125 15.71875 
Q 51.171875 7.171875 45.375 2.875 
Q 39.59375 -1.421875 30.171875 -1.421875 
Q 18.796875 -1.421875 11.890625 6.078125 
Q 4.984375 13.578125 4.984375 25.984375 
Q 4.984375 38.28125 11.765625 45.796875 
Q 18.5625 53.328125 29.59375 53.328125 
Q 41.359375 53.328125 47.65625 46.0625 
Q 53.953125 38.8125 54.203125 25 
z
M 43.609375 30.171875 
Q 43.3125 39.265625 39.765625 43.875 
Q 36.234375 48.484375 29.59375 48.484375 
Q 23.390625 48.484375 19.828125 43.84375 
Q 16.265625 39.203125 15.484375 30.171875 
z
" id="DejaVuSerif-101"/>
       <path d="M 39.796875 16.3125 
L 39.796875 27.296875 
L 28.21875 27.296875 
Q 21.53125 27.296875 18.25 24.40625 
Q 14.984375 21.53125 14.984375 15.578125 
Q 14.984375 10.15625 18.296875 6.984375 
Q 21.625 3.8125 27.296875 3.8125 
Q 32.90625 3.8125 36.34375 7.28125 
Q 39.796875 10.75 39.796875 16.3125 
z
M 48.78125 32.421875 
L 48.78125 5.171875 
L 56.78125 5.171875 
L 56.78125 0 
L 39.796875 0 
L 39.796875 5.609375 
Q 36.8125 2 32.90625 0.28125 
Q 29 -1.421875 23.78125 -1.421875 
Q 15.140625 -1.421875 10.0625 3.171875 
Q 4.984375 7.765625 4.984375 15.578125 
Q 4.984375 23.640625 10.796875 28.078125 
Q 16.609375 32.515625 27.203125 32.515625 
L 39.796875 32.515625 
L 39.796875 36.078125 
Q 39.796875 42 36.203125 45.234375 
Q 32.625 48.484375 26.125 48.484375 
Q 20.75 48.484375 17.578125 46.046875 
Q 14.40625 43.609375 13.625 38.8125 
L 8.984375 38.8125 
L 8.984375 49.3125 
Q 13.671875 51.3125 18.09375 52.3125 
Q 22.515625 53.328125 26.703125 53.328125 
Q 37.5 53.328125 43.140625 47.96875 
Q 48.78125 42.625 48.78125 32.421875 
z
" id="DejaVuSerif-97"/>
       <path d="M 5.609375 2.875 
L 5.609375 14.984375 
L 10.796875 14.984375 
Q 10.984375 9.1875 14.421875 6.296875 
Q 17.875 3.421875 24.609375 3.421875 
Q 30.671875 3.421875 33.84375 5.6875 
Q 37.015625 7.953125 37.015625 12.3125 
Q 37.015625 15.71875 34.6875 17.8125 
Q 32.375 19.921875 24.90625 22.3125 
L 18.40625 24.515625 
Q 11.71875 26.65625 8.71875 29.875 
Q 5.71875 33.109375 5.71875 38.09375 
Q 5.71875 45.21875 10.9375 49.265625 
Q 16.15625 53.328125 25.390625 53.328125 
Q 29.5 53.328125 34.03125 52.25 
Q 38.578125 51.171875 43.40625 49.125 
L 43.40625 37.796875 
L 38.234375 37.796875 
Q 38.03125 42.828125 34.703125 45.65625 
Q 31.390625 48.484375 25.6875 48.484375 
Q 20.015625 48.484375 17.109375 46.484375 
Q 14.203125 44.484375 14.203125 40.484375 
Q 14.203125 37.203125 16.40625 35.21875 
Q 18.609375 33.25 25.203125 31.203125 
L 32.328125 29 
Q 39.703125 26.703125 42.9375 23.265625 
Q 46.1875 19.828125 46.1875 14.40625 
Q 46.1875 7.03125 40.546875 2.796875 
Q 34.90625 -1.421875 25 -1.421875 
Q 19.96875 -1.421875 15.1875 -0.34375 
Q 10.40625 0.734375 5.609375 2.875 
z
" id="DejaVuSerif-115"/>
       <path d="M 4.109375 0 
L 4.109375 5.171875 
L 12.203125 5.171875 
L 12.203125 46.6875 
L 3.609375 46.6875 
L 3.609375 51.90625 
L 21.1875 51.90625 
L 21.1875 42.671875 
Q 23.6875 47.953125 27.65625 50.640625 
Q 31.640625 53.328125 36.921875 53.328125 
Q 45.515625 53.328125 49.5625 48.390625 
Q 53.609375 43.453125 53.609375 33.015625 
L 53.609375 5.171875 
L 61.625 5.171875 
L 61.625 0 
L 36.8125 0 
L 36.8125 5.171875 
L 44.578125 5.171875 
L 44.578125 30.171875 
Q 44.578125 39.703125 42.234375 43.234375 
Q 39.890625 46.78125 33.984375 46.78125 
Q 27.734375 46.78125 24.453125 42.203125 
Q 21.1875 37.640625 21.1875 28.90625 
L 21.1875 5.171875 
L 29 5.171875 
L 29 0 
z
" id="DejaVuSerif-110"/>
      </defs>
      <use xlink:href="#DejaVuSerif-102"/>
      <use x="37.011719" xlink:href="#DejaVuSerif-101"/>
      <use x="96.191406" xlink:href="#DejaVuSerif-97"/>
      <use x="155.810547" xlink:href="#DejaVuSerif-116"/>
      <use x="195.996094" xlink:href="#DejaVuSerif-115"/>
      <use x="247.314453" xlink:href="#DejaVuSerif-101"/>
      <use x="306.494141" xlink:href="#DejaVuSerif-110"/>
      <use x="370.898438" xlink:href="#DejaVuSerif-115"/>
      <use x="422.216797" xlink:href="#DejaVuSerif-101"/>
     </g>
    </g>
    <g id="line2d_9">
     <path d="M 83.907 71.959313 
L 110.307 71.959313 
" style="fill:none;stroke:#55a868;stroke-linecap:round;stroke-opacity:0.75;"/>
    </g>
    <g id="line2d_10"/>
    <g id="text_16">
     <!-- floam -->
     <g style="fill:#262626;" transform="translate(120.867 76.579313)scale(0.132 -0.132)">
      <defs>
       <path d="M 20.515625 5.171875 
L 29 5.171875 
L 29 0 
L 2.875 0 
L 2.875 5.171875 
L 11.53125 5.171875 
L 11.53125 70.796875 
L 2.875 70.796875 
L 2.875 75.984375 
L 20.515625 75.984375 
z
" id="DejaVuSerif-108"/>
       <path d="M 30.078125 3.421875 
Q 37.3125 3.421875 40.984375 9.125 
Q 44.671875 14.84375 44.671875 25.984375 
Q 44.671875 37.109375 40.984375 42.796875 
Q 37.3125 48.484375 30.078125 48.484375 
Q 22.859375 48.484375 19.171875 42.796875 
Q 15.484375 37.109375 15.484375 25.984375 
Q 15.484375 14.84375 19.1875 9.125 
Q 22.90625 3.421875 30.078125 3.421875 
z
M 30.078125 -1.421875 
Q 18.75 -1.421875 11.859375 6.078125 
Q 4.984375 13.578125 4.984375 25.984375 
Q 4.984375 38.375 11.84375 45.84375 
Q 18.703125 53.328125 30.078125 53.328125 
Q 41.453125 53.328125 48.3125 45.84375 
Q 55.171875 38.375 55.171875 25.984375 
Q 55.171875 13.578125 48.3125 6.078125 
Q 41.453125 -1.421875 30.078125 -1.421875 
z
" id="DejaVuSerif-111"/>
      </defs>
      <use xlink:href="#DejaVuSerif-102"/>
      <use x="37.011719" xlink:href="#DejaVuSerif-108"/>
      <use x="68.994141" xlink:href="#DejaVuSerif-111"/>
      <use x="129.199219" xlink:href="#DejaVuSerif-97"/>
      <use x="188.818359" xlink:href="#DejaVuSerif-109"/>
     </g>
    </g>
    <g id="line2d_11">
     <path d="M 83.907 91.334438 
L 110.307 91.334438 
" style="fill:none;stroke:#c44e52;stroke-linecap:round;stroke-opacity:0.75;"/>
    </g>
    <g id="line2d_12"/>
    <g id="text_17">
     <!-- floam_opt -->
     <g style="fill:#262626;" transform="translate(120.867 95.954438)scale(0.132 -0.132)">
      <defs>
       <path d="M 20.515625 28.515625 
L 20.515625 23.390625 
Q 20.515625 14.015625 24.09375 9.109375 
Q 27.6875 4.203125 34.515625 4.203125 
Q 41.40625 4.203125 44.9375 9.71875 
Q 48.484375 15.234375 48.484375 25.984375 
Q 48.484375 36.765625 44.9375 42.234375 
Q 41.40625 47.703125 34.515625 47.703125 
Q 27.6875 47.703125 24.09375 42.765625 
Q 20.515625 37.84375 20.515625 28.515625 
z
M 11.53125 46.6875 
L 2.875 46.6875 
L 2.875 51.90625 
L 20.515625 51.90625 
L 20.515625 43.796875 
Q 23.140625 48.6875 27.21875 51 
Q 31.296875 53.328125 37.3125 53.328125 
Q 46.875 53.328125 52.921875 45.75 
Q 58.984375 38.1875 58.984375 25.984375 
Q 58.984375 13.765625 52.921875 6.171875 
Q 46.875 -1.421875 37.3125 -1.421875 
Q 31.296875 -1.421875 27.21875 0.890625 
Q 23.140625 3.21875 20.515625 8.109375 
L 20.515625 -15.578125 
L 29 -15.578125 
L 29 -20.796875 
L 2.875 -20.796875 
L 2.875 -15.578125 
L 11.53125 -15.578125 
z
" id="DejaVuSerif-112"/>
      </defs>
      <use xlink:href="#DejaVuSerif-102"/>
      <use x="37.011719" xlink:href="#DejaVuSerif-108"/>
      <use x="68.994141" xlink:href="#DejaVuSerif-111"/>
      <use x="129.199219" xlink:href="#DejaVuSerif-97"/>
      <use x="188.818359" xlink:href="#DejaVuSerif-109"/>
      <use x="283.642578" xlink:href="#DejaVuSerif-95"/>
      <use x="333.642578" xlink:href="#DejaVuSerif-111"/>
      <use x="393.847656" xlink:href="#DejaVuSerif-112"/>
      <use x="457.861328" xlink:href="#DejaVuSerif-116"/>
     </g>
    </g>
   </g>
  </g>
 </g>
 <defs>
  <clipPath id="peb854b9d45">
   <rect height="360.29475" width="344.421" x="72.027" y="15.552"/>
  </clipPath>
 </defs>
</svg>
